# xmcd CD database file
#
# Track frame offsets:
#	150
#	18985
#	35780
#	52055
#	67740
#	84942
#	101185
#	118247
#	137797
#	158267
#	173002
#	194610
#	209415
#	229362
#	249692
#	263792
#
# Disc length: 3741 seconds
#
# Revision: 0
# Processed by: cddbd v1.5.2PL0 Copyright (c) Steve Scherf et al.
# Submitted via: CDex 1.51
#
DISCID=e30e9b10
DTITLE=Pecos Kanvas - Lo Mejor De Pecos Kanvas
DYEAR=1996
DGENRE=Balada
TTITLE0=Amame
TTITLE1=Entregate
TTITLE2=Casi Amante Casi Amigo
TTITLE3=Tan Adentro De Mi Alma
TTITLE4=Amor De Tantas Veces
TTITLE5=Cuando Seas Mia
TTITLE6=Que Quieres De Mi
TTITLE7=Mar Y Luna
TTITLE8=Procuro Olvidarte
TTITLE9=Vuelve
TTITLE10=Estoy Confundido
TTITLE11=A Escondidas
TTITLE12=Terciopelo Y Fuego
TTITLE13=Por Ti
TTITLE14=A Favor Del Viento
TTITLE15=Todo El Mundo Necesita Amor
EXTD=YEAR: 1996
EXTT0=
EXTT1=
EXTT2=
EXTT3=
EXTT4=
EXTT5=
EXTT6=
EXTT7=
EXTT8=
EXTT9=
EXTT10=
EXTT11=
EXTT12=
EXTT13=
EXTT14=
EXTT15=
PLAYORDER=
